<svg xmlns="http://www.w3.org/2000/svg">

<symbol id="notification" width="26" height="26" viewBox="0 0 26 26" fill="none" xmlns="http://www.w3.org/2000/svg">
<rect x="0.240385" y="-0.240385" width="25.4808" height="25.4808" rx="5.04808" transform="matrix(-1 0 0 1 25.9615 0.48077)" stroke="#C7C7C7" stroke-opacity="0.48" stroke-width="0.480769"/>
<path d="M13.5694 19.0658L13.8631 18.5697C14.0908 18.1849 14.2047 17.9925 14.3876 17.8861C14.5705 17.7797 14.8008 17.7757 15.2614 17.7678C15.9414 17.7561 16.3679 17.7144 16.7255 17.5663C17.3892 17.2914 17.9164 16.7642 18.1913 16.1005C18.3975 15.6028 18.3974 14.9719 18.3974 13.7099V13.1683C18.3974 12.968 18.3974 12.7791 18.3969 12.6005C18.3961 12.3691 18.1131 12.2383 17.9084 12.3463C17.5692 12.5253 17.1827 12.6266 16.7725 12.6266C15.4262 12.6266 14.335 11.5353 14.335 10.1891C14.335 9.7789 14.4363 9.39237 14.6153 9.05316C14.7233 8.84844 14.5925 8.56542 14.361 8.56468C14.1825 8.5641 13.9935 8.5641 13.7933 8.5641H12.1683C10.3952 8.5641 9.50862 8.5641 8.85735 8.9632C8.49293 9.18652 8.18654 9.49291 7.96322 9.85734C7.56412 10.5086 7.56412 11.3952 7.56412 13.1683V13.7099C7.56412 14.9719 7.56412 15.6028 7.77028 16.1005C8.04516 16.7642 8.5724 17.2914 9.23601 17.5663C9.59368 17.7144 10.0202 17.7561 10.7001 17.7678C11.1607 17.7757 11.391 17.7797 11.574 17.8861C11.7569 17.9925 11.8708 18.1849 12.0985 18.5697L12.3922 19.0658C12.6539 19.5079 13.3077 19.5079 13.5694 19.0658Z" fill="#6793D2"/>
<path d="M16.7724 11.8141C17.6699 11.8141 18.3974 11.0866 18.3974 10.1891C18.3974 9.29164 17.6699 8.5641 16.7724 8.5641C15.875 8.5641 15.1474 9.29164 15.1474 10.1891C15.1474 11.0866 15.875 11.8141 16.7724 11.8141Z" fill="#67D28E"/>
</symbol>

<symbol id="arrow" width="21" height="22" viewBox="0 0 21 22" fill="none" xmlns="http://www.w3.org/2000/svg">
<ellipse cx="10.5" cy="11" rx="10.5" ry="11" fill="#ECEFF6"/>
<path d="M14.3182 11.3182C14.4939 11.1425 14.4939 10.8575 14.3182 10.6818L11.4544 7.81802C11.2787 7.64228 10.9938 7.64228 10.818 7.81802C10.6423 7.99376 10.6423 8.27868 10.818 8.45442L13.3636 11L10.818 13.5456C10.6423 13.7213 10.6423 14.0062 10.818 14.182C10.9938 14.3577 11.2787 14.3577 11.4544 14.182L14.3182 11.3182ZM7 11L7 11.45L14 11.45L14 11L14 10.55L7 10.55L7 11Z" fill="#222E53"/>
</symbol>

<symbol id="arrow2" width="20" height="20" viewBox="0 0 20 20" fill="none" xmlns="http://www.w3.org/2000/svg">
<rect width="20" height="20" rx="10" fill="#ECEFF6"/>
<path d="M11.6833 8.50004C11.6833 8.30674 11.5266 8.15004 11.3333 8.15004L8.18333 8.15004C7.99003 8.15004 7.83333 8.30674 7.83333 8.50004C7.83333 8.69334 7.99003 8.85004 8.18333 8.85004L10.9833 8.85004L10.9833 11.65C10.9833 11.8433 11.14 12 11.3333 12C11.5266 12 11.6833 11.8433 11.6833 11.65L11.6833 8.50004ZM8 11.8334L8.24749 12.0809L11.5808 8.74753L11.3333 8.50004L11.0858 8.25255L7.75251 11.5859L8 11.8334Z" fill="#222E53"/>
</symbol>

<symbol id="star" width="6" height="6" viewBox="0 0 6 6" fill="none" xmlns="http://www.w3.org/2000/svg">
<path fill-rule="evenodd" clip-rule="evenodd" d="M5.15146 2.14039C5.0519 1.71694 4.60992 1.69507 4.25464 1.67732C4.03108 1.666 3.7998 1.65468 3.70307 1.5546C3.60454 1.45273 3.52762 1.25747 3.45276 1.06864C3.30689 0.699206 3.14147 0.28064 2.72496 0.28064C2.30871 0.28064 2.14355 0.699206 1.99742 1.06864C1.92281 1.25747 1.84564 1.45273 1.74736 1.5546C1.65037 1.65468 1.41909 1.666 1.19553 1.67732C0.840253 1.69507 0.398276 1.71694 0.298715 2.14039C0.2043 2.54224 0.49938 2.78535 0.75973 2.99991C0.937756 3.14655 1.10601 3.28547 1.14331 3.45526C1.17958 3.62017 1.12504 3.83318 1.0723 4.0395C0.981748 4.39427 0.878843 4.79611 1.22229 5.05518C1.32957 5.13622 1.43839 5.16837 1.54592 5.16837C1.77875 5.16837 2.00565 5.01813 2.19989 4.8895C2.37971 4.77065 2.56571 4.64742 2.72496 4.64742C2.88421 4.64742 3.07046 4.77065 3.25003 4.8895C3.53431 5.07756 3.88779 5.31115 4.22815 5.05518C4.57159 4.79611 4.46869 4.39401 4.37787 4.03899C4.32513 3.83292 4.27085 3.61991 4.30687 3.45526C4.34417 3.28547 4.51242 3.1468 4.69045 2.99991C4.9508 2.78535 5.24588 2.54224 5.15146 2.14039Z" fill="#FFEA00" stroke="#E7D405" stroke-width="0.5613"/>
</symbol>

<symbol id="footer" width="86" height="86" viewBox="0 0 86 86" fill="none" xmlns="http://www.w3.org/2000/svg">
<g filter="url(#filter0_d_46_108)">
<circle cx="43" cy="43" r="22" fill="white"/>
</g>
<rect x="34.75" y="34.75" width="6.5" height="6.5" rx="1.25" stroke="#3E63BE" stroke-width="1.5"/>
<rect x="44.75" y="34.75" width="6.5" height="6.5" rx="1.25" stroke="#3E63BE" stroke-width="1.5"/>
<rect x="34.75" y="44.75" width="6.5" height="6.5" rx="1.25" stroke="#3E63BE" stroke-width="1.5"/>
<rect x="44.75" y="44.75" width="6.5" height="6.5" rx="1.25" stroke="#3E63BE" stroke-width="1.5"/>
<defs>
<filter id="filter0_d_46_108" x="0" y="0" width="86" height="86" filterUnits="userSpaceOnUse" color-interpolation-filters="sRGB">
<feFlood flood-opacity="0" result="BackgroundImageFix"/>
<feColorMatrix in="SourceAlpha" type="matrix" values="0 0 0 0 0 0 0 0 0 0 0 0 0 0 0 0 0 0 127 0" result="hardAlpha"/>
<feMorphology radius="1" operator="dilate" in="SourceAlpha" result="effect1_dropShadow_46_108"/>
<feOffset/>
<feGaussianBlur stdDeviation="10"/>
<feComposite in2="hardAlpha" operator="out"/>
<feColorMatrix type="matrix" values="0 0 0 0 0.0470588 0 0 0 0 0.054902 0 0 0 0 0.235294 0 0 0 0.11 0"/>
<feBlend mode="normal" in2="BackgroundImageFix" result="effect1_dropShadow_46_108"/>
<feBlend mode="normal" in="SourceGraphic" in2="effect1_dropShadow_46_108" result="shape"/>
</filter>
</defs>
</symbol>



</svg>